<svg width="45" height="45" viewBox="0 0 45 45" fill="none" xmlns="http://www.w3.org/2000/svg">
<g clip-path="url(#clip0_5_40)">
<path d="M22.4999 0.899994C16.7712 0.899994 11.2772 3.1757 7.22639 7.22649C3.17561 11.2773 0.899902 16.7713 0.899902 22.5C0.90005 25.3365 1.4589 28.1453 2.54453 30.7659C3.63017 33.3864 5.22134 35.7675 7.22719 37.7732C9.23304 39.7788 11.6143 41.3697 14.235 42.4551C16.8557 43.5405 19.6645 44.099 22.501 44.0989C25.3376 44.0987 28.1463 43.5399 30.7669 42.4542C33.3875 41.3686 35.7686 39.7774 37.7742 37.7716C39.7798 35.7657 41.3708 33.3845 42.4561 30.7638C43.5415 28.1431 44.1 25.3343 44.0999 22.4977C44.0999 10.5705 34.4272 0.899994 22.4999 0.899994ZM22.4999 39.5977C20.2543 39.5977 18.0307 39.1554 15.956 38.2961C13.8813 37.4367 11.9963 36.1772 10.4084 34.5893C8.82049 33.0014 7.56092 31.1163 6.70156 29.0416C5.84221 26.967 5.3999 24.7433 5.3999 22.4977C5.3999 20.2521 5.84221 18.0285 6.70156 15.9539C7.56092 13.8792 8.82049 11.9941 10.4084 10.4062C11.9963 8.81834 13.8813 7.55876 15.956 6.6994C18.0307 5.84005 20.2543 5.39774 22.4999 5.39774V22.5L37.7819 14.859C38.9766 17.2289 39.5993 19.8459 39.5999 22.5C39.5993 27.0348 37.7974 31.3837 34.5906 34.5901C31.3838 37.7965 27.0347 39.5977 22.4999 39.5977Z" fill="white"/>
</g>
<defs>
<clipPath id="clip0_5_40">
<rect width="45" height="45" fill="white"/>
</clipPath>
</defs>
</svg>
